<svg width="35" height="35" viewBox="0 0 35 35" fill="none" xmlns="http://www.w3.org/2000/svg">
<path d="M28.7537 0.619385H6.24812C3.14312 0.62876 0.628745 3.14314 0.61937 6.25001V28.7538C0.61937 31.8456 3.15437 34.3806 6.24812 34.3806H28.7537C31.8456 34.3806 34.3806 31.8456 34.3806 28.7538V6.25001C34.3806 3.15438 31.8456 0.619385 28.7537 0.619385ZM25.6787 24.3325C25.3937 25.0075 24.9494 25.6075 24.3794 26.0706C23.7887 26.545 23.0387 26.9388 22.1181 27.2219C21.1994 27.505 20.1044 27.6513 18.8369 27.6513H9.78999V7.95439H19.3581C21.1262 7.95439 22.5456 8.35376 23.6087 9.16563C24.6756 9.98313 25.21 11.1944 25.21 12.8369C25.21 13.8269 24.9662 14.68 24.4806 15.3813C23.995 16.0806 23.2994 16.6263 22.3975 17.0088V17.0725C23.6012 17.3256 24.5294 17.8938 25.1425 18.7825C25.7556 19.6694 26.0669 20.7869 26.0669 22.1369C26.0669 22.8963 25.9206 23.6144 25.645 24.2875L25.6825 24.3269V24.3325H25.6787ZM21.7712 19.4781C21.1919 18.9494 20.3856 18.6925 19.3394 18.6925H13.2569V24.835H19.3562C20.395 24.835 21.2144 24.565 21.79 24.0194C22.3675 23.4775 22.66 22.705 22.66 21.715C22.6506 20.7438 22.3675 19.9919 21.79 19.4781H21.7637H21.7712ZM20.9256 15.505C21.4862 15.0344 21.7581 14.3556 21.7581 13.4725C21.7581 12.4863 21.5125 11.7813 21.0137 11.38C20.5187 10.9788 19.8025 10.7688 18.865 10.7688H13.2381V16.2025H18.865C19.6825 16.2044 20.3837 15.9644 20.9256 15.505Z" fill="#940085"/>
</svg>
