<svg width="45" height="45" viewBox="0 0 45 45" fill="none" xmlns="http://www.w3.org/2000/svg">
<path d="M28.7475 16.2525C32.1975 16.2525 34.995 13.4532 34.995 10.0069C34.995 6.55877 32.1975 3.7594 28.7475 3.7594H22.5H16.2525C12.8025 3.7594 10.005 6.55877 10.005 10.0069C10.005 13.4532 12.8025 16.2525 16.2525 16.2525C12.8025 16.2525 10.005 19.0519 10.005 22.5019C10.005 25.95 12.8025 28.7494 16.2525 28.7494C12.8025 28.7494 10.005 31.5488 10.005 34.9969C10.005 38.4469 12.8025 41.2444 16.2525 41.2444C19.7025 41.2444 22.5 38.4431 22.5 34.995V28.7475V22.5V16.2525H28.7475Z" fill="black"/>
<path d="M28.7475 28.7476C32.1979 28.7476 34.995 25.9505 34.995 22.5001C34.995 19.0497 32.1979 16.2526 28.7475 16.2526C25.2971 16.2526 22.5 19.0497 22.5 22.5001C22.5 25.9505 25.2971 28.7476 28.7475 28.7476Z" fill="#FF444E"/>
</svg>
