<svg width="50" height="50" viewBox="0 0 50 50" fill="none" xmlns="http://www.w3.org/2000/svg">
<path d="M0 0H50V50H0V0ZM45.9028 38.075C45.5389 35.7944 44.0528 33.8778 39.6472 32.0889C38.1139 31.3694 36.4111 30.8722 35.9 29.7167C35.7111 29.0278 35.6833 28.6556 35.8056 28.2472C36.1194 26.9028 37.7139 26.5 38.9639 26.8722C39.7778 27.1222 40.5278 27.7472 40.9972 28.75C43.15 27.3417 43.15 27.3417 44.6528 26.4056C44.0889 25.5333 43.8083 25.1528 43.4333 24.7778C42.1194 23.3111 40.3694 22.5611 37.5278 22.625L36.0611 22.8111C34.6528 23.1556 33.3083 23.9083 32.4972 24.9056C30.1222 27.5944 30.8083 32.2806 33.6833 34.2222C36.525 36.3472 40.6861 36.8139 41.2167 38.8139C41.7167 41.2528 39.4056 42.0333 37.1194 41.7528C35.4333 41.375 34.4944 40.5333 33.4639 38.9694L29.6528 41.1583C30.0889 42.1556 30.5889 42.5944 31.3389 43.4694C34.9639 47.125 44.0278 46.9389 45.6528 41.375C45.7111 41.1889 46.1528 39.9083 45.8083 37.9389L45.9028 38.075ZM27.1889 22.9806H22.5056C22.5056 27.0167 22.4861 31.0306 22.4861 35.075C22.4861 37.6417 22.6167 39.9972 22.1972 40.7222C21.5111 42.1583 19.7361 41.975 18.9333 41.7194C18.1083 41.3139 17.6889 40.75 17.2028 39.9389C17.0722 39.7222 16.975 39.5333 16.9389 39.5333L13.1389 41.8778C13.775 43.1917 14.7028 44.3194 15.9 45.0361C17.6806 46.1 20.0722 46.4444 22.5778 45.8833C24.2111 45.4111 25.6194 44.4417 26.35 42.9417C27.4167 41.0056 27.1889 38.6278 27.1806 35.9722C27.2028 31.6917 27.1806 27.4083 27.1806 23.0972L27.1889 22.9806Z" fill="#FAFF00"/>
</svg>
