<svg width="40" height="40" viewBox="0 0 40 40" fill="none" xmlns="http://www.w3.org/2000/svg">
<path d="M33.3333 5H6.66667C4.82834 5 3.33334 6.495 3.33334 8.33333V31.6667C3.33334 33.505 4.82834 35 6.66667 35H33.3333C35.1717 35 36.6667 33.505 36.6667 31.6667V8.33333C36.6667 6.495 35.1717 5 33.3333 5ZM6.66667 31.6667V11.6667H33.3333L33.3367 31.6667H6.66667Z" fill="#FF444E"/>
<path d="M15.4883 15.4883L9.31 21.6667L15.4883 27.845L17.845 25.4883L14.0233 21.6667L17.845 17.845L15.4883 15.4883ZM24.5117 15.4883L22.155 17.845L25.9767 21.6667L22.155 25.4883L24.5117 27.845L30.69 21.6667L24.5117 15.4883Z" fill="#FF444E"/>
</svg>
